<mxfile host="app.diagrams.net" modified="2023-12-06T07:55:32.286Z" agent="Mozilla/5.0 (Windows NT 10.0; Win64; x64) AppleWebKit/537.36 (KHTML, like Gecko) Chrome/119.0.0.0 Safari/537.36" etag="eS0MB_H9iSnjot6lHT2K" version="22.1.5" type="github">
  <diagram name="Page-1" id="OB3lblQsoEeNs6UiwVJ4">
    <mxGraphModel dx="1195" dy="743" grid="1" gridSize="10" guides="1" tooltips="1" connect="1" arrows="1" fold="1" page="1" pageScale="1" pageWidth="850" pageHeight="1100" math="0" shadow="0">
      <root>
        <mxCell id="0" />
        <mxCell id="1" parent="0" />
        <mxCell id="Rj9h4qlOKOgGgEatjy53-15" value="" style="shape=stencil(lVjZkhoxDPwaXlWyLV/Pm81/bNWygQqBLZZcfx85UwNjeeiEt2HotnW0ZHk24elj9/K+3Xj+uJxPX7c/96+X3SZ82ni/P+625/1FnzbheROe3k7n7Zfz6fvxdfr9/tKQ7enb6Udb4dfEc8zE3Gief0+vmCT/ffF5Ihz2xwWhRiq5w3uqAeADSe3wiUIEeE9SOnyl9usu3lH0Hd5hg0qlFHtCJgEWlUyh90BdTg4QhKoJUSFfAcET9z4EIQE75DLHcCYIUwE75EC130EyxXKfkNTiXhZRTWJAcHPUr3l25IGQYiQxhDzHbZUghYp0hIyjJN76UBhmOiTi3qRyVfsqQbUpfVhVjgFESZUjfeK0nmq6T3BpltqVoPoVQND1iiVktINQjJaAnNb6kmQJFZU0VRnwSKzke/yiSa0nmtJoEHB5zQFUPWxbXgspxPOwfgIRZXLe4iPKsZVpverwjr+ZLT4AvMzRW+A9iKe2kiE+qGc7npdbEkDPVsnlQUIetC8VdR52CEjUidwQI0E7aGEOSUhApErw1RIyilIkN5R+QbII5AcCOgo1D2UkAKcLuccqM9rD/x8bBHJDUCuK0azjZYgAnm1raTkAR8gwHLXKBPY/itfjxfir7RvY0wrBdHcHS9NVO7yU657rvSLa46AdmsCk4Mn1JumxjEotFFub7eAHJkm0WWujBSiE6KzsIjYpZutDG49AWNWAaAgMD80U7SyiI14AZ4gOYGymzgLnqcx2FmljKqjN7G2m2yAMwqp5NW27jdqg2pRQTfnPHWodHykNdwW0fp6P1dtdBCWhOJsELG3Fmx7PcLrTOT5Wg0f+6kWBncE74G8rXW/wDFSqN5dq/WWwfmXb33F3b3c1az8Df6vYQUHxQHA1UbT2O2TPUDOKR3fZahsLw2Z6GxMXekBDxaOX6/8g6MPtLv+2PxymTwHL/+3dX19N3w3C8x8=);lineShape=1;fontSize=16;" vertex="1" parent="1">
          <mxGeometry x="160.33331650082278" y="175.8221447583868" width="12.509505089431249" height="268.263869891724" as="geometry" />
        </mxCell>
        <mxCell id="Rj9h4qlOKOgGgEatjy53-16" value="" style="shape=stencil(lVfZctswDPwavWJ4iAT5nKb/kZk4taeunXHc6+8LVmUjEPJ68iZbgIjFLg5O8eFt//S6m4J7u17OX3c/D8/X/RQ/TSEcTvvd5XCVpyk+TvHh5XzZfbmcv5+el9+vT82yPX07/2hf+LX4lULMzSu438s/jubw94/Pi/3xcFrZ15lqUvaBZg/smeai7OUDFdiXfny3ZwozsK+UdPzeUYy3Hbxz5Jz2mCk6HFLWDpUcwpDJ6xMEdC7AIVDSSY2OCt92ENaS1w5MBdBQIs1R05A6MZsOzOR0XlPsQW47OPI6S9kTgxNyJKdDypUqwJBEOfoECZKBVudMSfNQEjHQRkuiBl0jBcB0qCNo0WMGGEKhEEYHBvoOiUoaHQrgQeoxutGhghM899drBwDaS040caua2lYfZZOlf1RuE0fsDWYUERUDmYG92yAhg3hE2oaDhHoMpTLaoyYp/cfYo44kIjLxBFAIPvRKXDl4lFAeK+eOg0CuhjLUt0XXyWgiAgwC2hnQMyCh1abRdQIsywlsQGcEOneVrXWKMEgLNQ6o5cmgmQ3oCpqqjLKiebhXmzIubZrQEYlqNPYINGVjXwBvbqN4GOTIjPNGM4j/o/ala2A9E8BsltqJmoI2ddBMkNd2rgHKYhxJzrg/zq4ztJ7NqAHzqOw2/QFpMpu9DqntF+CEJNWpZdGGLwDd1gUdUtuRwCDMMv016DtbWC59OVjveWhHEikNiyHeJIWmqGutLaugS2YeG7dswyCrgnkY/okcqE1J6sCCbPNASCl1nb3fFhJa2fJYbIIXfZ/HJu/g/iUqMt9HY6rJ3o/2IP6cbDwOaa6MlSn24Psc7O0LNWvONn7Eb/mf7pU90I9cE7LJJ/p+Hvdf4QtdQ3hsRK43y1v3nA/dTu/by8P7VfjlcDwuN+n1+/HqLH8t1+74+Ac=);lineShape=1;fontSize=16;" vertex="1" parent="1">
          <mxGeometry x="240.66767457208311" y="179.9878519859709" width="7.142002970292083" height="255.3118180345649" as="geometry" />
        </mxCell>
        <mxCell id="Rj9h4qlOKOgGgEatjy53-17" value="" style="shape=stencil(lVfbbtswDP0avxK6i3ruuv8o0HQxliVFmm3t34+GoTSkpxP0zZZ5zNvhRVN8eNs/ve6m4N4u59PP3d/5+bKf4rcphPm4353nizxN8XGKDy+n8+7H+fT7+Ly+vz4tksvTr9Of5Q/vK84RuwUU3Ec/cOvB91X8MB9vxBNlLZ6olLG4d1SbkpcTZgBolKsGZOI4BoSyAVRiYFLMlIMCBE8BaEiZqvZZdCYQoyyfkwLESBmYVCpFr6MaoUmVqWoN2VMMYwA3Yh2lkij5MaA1SjpxnLvOEaCwBkhmMgSw9oGZHPBBAC1rgJw0RL4rlzuiBQrYpqadaEJ4QNcFYDQUqjiutWgAd7aMANmYdC2RESBqwE0cRghfrYqCVHCP+40TBfBVPptcS5ga1lCzTQTqGwtAV7WkGoaJN4lwFLAGU0LC1wCqWoLotElSERUTPOg2IDXHd4o0WADMg+R1Y1LA1DD9myslzL5mNIhXoEhb23DJU0IT4j9VHe+FqUXLPodrjnUiWu1uDeNq+C1e4zClbAENmxQ2Ghhr+BpA8mRmSr0W4WgIFV1BBY8IGXOG37nCPiODNGoNSUYE4IaMapOH5GHrk2Ug6WYpJw04vawbmksxwKJeFhrtdLyzATk7SEWnB30m2SDJCocqTv6vqefl/8BlZ0MkGxkaca5vIlf5BDc4R96siHhbkvI38p4aljf2iEZA0017YdgiN78vcCq4TuDPBToB+jg7mkNvyKPYa9s97NbOdiHX2T1iTjDiDop/6WpxV1wePm8xL/PhsF6Cbr/bW48crTem+PgP);lineShape=1;fontSize=16;" vertex="1" parent="1">
          <mxGeometry x="128.82091032338735" y="259.99390717634867" width="163.58567153281325" height="14.52358283689345" as="geometry" />
        </mxCell>
        <mxCell id="Rj9h4qlOKOgGgEatjy53-18" value="" style="shape=stencil(lVfZctswDPwavWJIggf4nKb/kZk4tadunHGcHn9fqipVAw5XzZts7VLA4uTEd6/7h5fdFNzr5Xz6uvtxeLzsJ/40hXB43u/Oh0t7mvh+4run03n35Xx6e35cfr88zMj56dvp+3zCz4XnKNWZFNyv5Q9hiuHPP58X/PHwfIVnqhpfMkkd44Uka7ynAM73TE4TciGPCELZa0Igx2NCSJaQEgVA4OYzK0LMUKPIxE4RuPlQxoTElEURmm4JEHIk1mEInhIwqSQqWlYfiAFBChWtkqfqxvhaiYvCO3IYnyyeM8SXZOyJCeJFK8Tk8flVhyARg6TwbvVvzWwq2OFqItBO2PDgJmSoEmaJtEWtmDZM+pszKyH22hgG2VtCEUjwN19AlVCFarJOC1KpNZhgZa0o0GIrQbBIYhMvdxH+06BIDkWteRx1KZPHQfM6yo4KSNQ5Zha/kXbJ4j3GZ11onhzOIUnG34TtNxkRYWt8pzDzVucylV8pgIk2402ZtVaEi8D2XqYQcQi0RX7t98MY3xBko5A/RGjjQIzTuc+s0cCxYW4zEMS5jbSoVeLcjRwNzaInSJu7aCTMr83gb5sCkJVjr5Q1k3w/YrRaFF37xeEpIjeEApOvZY7XTkvoyTLYv8y+JrlvM++LREFrVHH/dSR6N5rLA0jkKJv+7vCi4ChW+wE0o1bBV/za8Af4oBO7lv7FAd6035rgAuz6MrriW1aB4r/pXi0ADtrvTMBwf29vTQIJrEvX16arBELLb9NTdxZJcB60+Gp9JG7kw8cuLNv49vDvdvR0OB6Xy9X1e3uban8tNzG+/w0=);lineShape=1;fontSize=16;" vertex="1" parent="1">
          <mxGeometry x="111.32206399799634" y="343.2355220673019" width="166.65791780479424" height="14.107175973145635" as="geometry" />
        </mxCell>
        <mxCell id="Rj9h4qlOKOgGgEatjy53-19" value="" style="shape=stencil(lVbLbhsxDPyavRKiqOc5Tf8jQOx6UdcOHKdJ/j50F1qb2uwYva1ljkhxZigN8vC6e3rZDN69nk/H35v38fm8G+TH4P142G1O41m/Bnkc5GF7PG1+nY5vh+fp98vTJfLy9ef497LDx4QTEn8Befc5LYRE2f1b+TnF78fDTTxnSsEAxBP7dYCvFKsBaE6f1gHBU04GwIUcKClqxTZDpcDr8TlSFRPv4P41UbL7C2Wwf82Us4mP5CqIL5RtPboQQLwer2tQIJ8hoDpLAROjEyug46xQBCQroDuCxHtnYCsjpd0JbJK3Jd0RqrLgbZdCbVus0cwLQEQ8R2K2gEyCDq00dQAhhzIIRaskSVQLBPhoiatUkDSkKWcGeAqIB6FkM3DEgNB6cnVnQlKKPW+REnZnN8HUnahFmUI38UhQh0o7XovPWEa1p4B9W1n1jlW2zrsMOsRunlczaQmbR0VgaxKBI1IBYmURNCfqaumnfIgkYMorDanzQqGEMqQ2gW7sCQeAAmQBQPdComC7pCMmAT9HlVI36DO8ScLCbSkTA22Io2CZzjpDANMqnWLdUzxFVFIz1+zOeZR/X9HC/g7fnr71fE5QIAvcS1UHQgUt4n4IV24t+Dbe9aoo8/W+Es+2nuJggxbezAFeCrOvbiRRgA8cSRfPd+op1pj6XELjiPsrJ3J7j63w2ylUfYxuzf99cN6P14/r63Y77vfT4/j2//41rEvTS1oevwA=);lineShape=1;fontSize=16;" vertex="1" parent="1">
          <mxGeometry x="260.39571080879546" y="341.8669720684095" width="32.09913220467949" height="4.7344690186853695" as="geometry" />
        </mxCell>
      </root>
    </mxGraphModel>
  </diagram>
</mxfile>
